<svg xmlns="http://www.w3.org/2000/svg" version="1.1" viewBox="-5.0 -10.0 110.0 135.0">
 <path d="m96.938 40.309s-10.898 2.0273-23.184 2.5898c0 0 0.1875-18.242 0.17578-18.445-0.070313-1.2852-0.67969-2.0312-1.1797-2.4297-0.69922-0.55859-1.5742-0.84375-2.5977-0.84375-6.2969 0-18.754 11.5-26.348 19.266-0.89453-0.40625-2.4297-1.4766-3.7148-2.375-2.3594-1.6484-5.0352-3.5195-7.6406-4.4844-4.0352-1.4961-8.7812-0.41797-11.07 0.28125-0.98047-1.0391-2.6641-2.0703-5.5156-2.0703-0.15234 0-0.30469 0.003906-0.50391 0.011719-0.03125 0-0.89062 0.074218-2.1445 0.44531-1.0039-2.8242-1.8711-6.6523-1.0586-7.9453 0.10156-0.16016 0.24609-0.33203 0.69922-0.35938 0.070312 0 0.18359 0.03125 0.19922 0.03125 0 0 0.042968 0.14062-0.058594 0.50781-0.20703 0.73438 0.22266 1.5 0.95703 1.7109 0.73828 0.21094 1.5039-0.21875 1.7109-0.96094 0.41797-1.4844-0.003906-2.4336-0.42969-2.9688-0.69531-0.86719-1.7852-1.1211-2.5078-1.0898-1.1836 0.0625-2.1289 0.58203-2.7656 1.4609-0.81641-0.3125-1.6797-0.20703-2.2383 0.019531-1.1836 0.47656-1.9531 1.3438-2.2266 2.5078-0.65625 2.7812 1.9219 6.7188 3.6797 8.9961-2.7656 1.8984-5.5195 5.2969-6.0352 11.383-0.37109 4.3516 0.085937 7.0664 1.4414 8.5391 0.68359 0.74609 1.5898 1.1406 2.6172 1.1406 2.4102 0 5.1055-2.2266 7.0195-4.1992 0.26172-0.09375 0.64844-0.24219 1.1094-0.44531 0.39062 0.67188 1.0195 1.6797 1.875 2.8008l-7.832 8.2109-5.6641 1.4766 0.69922 2.6797 6.043-1.5781c0.25-0.0625 0.47656-0.19531 0.65234-0.38281l7.9102-8.2969c1.1641 1.2148 2.5547 2.3828 4.1445 3.2461l-3.168 4.543-4.4141 1.8281 1.0625 2.5625 4.7891-1.9844c0.24609-0.10156 0.45312-0.26953 0.60547-0.48828l3.7617-5.3945c0.019531 0.003906 0.035156 0.011718 0.054687 0.015624 2.3359 0.59766 4.2578 0.79688 5.7773 0.79688 1.3516 0 2.3867-0.15625 3.1055-0.32422 0.41016 0.59375 0.83984 1.0156 1.1445 1.2812 0.96484 0.82812 2.1211 1.2461 3.4375 1.2461 0.011719 0 0.023438-0.003906 0.035156-0.003906 8.4492 4.7109 18.355 6.3047 26.758 6.3047 1.4609 0 2.875-0.046875 4.2305-0.13672 0 0 0.25781 6.6055 0.95312 7.0703l7.7266 2.7656 0.82812-2.6445-6.4062-2.0039 0.054688-5.4766c4.4531-0.52344 7.9648-1.4766 9.8203-2.4844 0.42969-0.23438 1.7422-0.94922 1.8125-2.2227 0.085938-1.5508-0.71094-2.7695-1.7773-3.6641 14.484-5.2812 13.59-20.016 13.59-20.016zm-43.316 21.289c2.1055 0.30859 4.6836 0.5625 7.8047 0.68359 0.066407 1.0898 0.24609 2.6055 0.70312 3.9688-2.6602-0.16406-5.4336-0.50391-8.2305-1.0781-0.43359-1.0234-0.40234-2.5078-0.27734-3.5742zm-4.8477-3.8711c0.18359-0.17969 0.3125-0.3125 0.375-0.37891 1.0703-1.0664 5.6055-5.6172 10.508-11.117 1.3984-0.03125 4.9141-0.11719 9.3672-0.3125l0.77344 13.59c-11.809 0.39844-18.172-0.90625-21.023-1.7812zm19.66-22.176 0.43359 7.5938c-2.668 0.11719-4.9922 0.19531-6.7227 0.25 2.2227-2.5898 4.4102-5.2773 6.2891-7.8438zm-60.242-9.7461c0.042969-0.18359 0.125-0.39453 0.54688-0.56641 0.066407-0.019531 0.19141-0.023437 0.19922-0.035156 0 0 0.085938 0.11719 0.10938 0.5 0.003906 0.050781 0.015625 0.10156 0.023437 0.14844-0.015624 1.293 0.21094 2.6953 0.52344 4-0.95703-1.6016-1.6133-3.1562-1.4023-4.0469zm4.8555 22.688-0.35156 0.10547-0.25 0.26562c-2.5078 2.6445-4.3555 3.5859-5.25 3.5859-0.25391 0-0.41406-0.066407-0.57422-0.24219-0.34766-0.37891-1.1172-1.7656-0.71875-6.4297 0.011718-0.14453 0.03125-0.27734 0.046875-0.41797 0.085937 0.003906 0.16797 0.007813 0.25781 0.007813 1.5117 0 3.707-0.58203 6.0078-3.1523 1.4336-1.6016 2.0898-3.2461 1.9531-4.8867-0.078125-0.9375-0.40625-1.6953-0.76562-2.2695 1.1562-0.39844 2.0078-0.48047 2.1016-0.48828 0.12109-0.003906 0.24219-0.007812 0.35938-0.007812 1.75 0 3.0078 0.49609 3.7383 1.4727 1.0156 1.3633 1.125 3.7422 0.29688 6.5312-1.2266 4.1484-6.7969 5.9102-6.8516 5.9258zm7.8828 4.9922 1.4609-1.5352 1.9531 4.2812c-1.2891-0.72266-2.4375-1.7109-3.4141-2.7461zm6.8164 3.5234 1.4766-2.1172 1.0391 2.8906c-0.69141-0.054688-1.4648-0.16016-2.3125-0.32812zm3.1758-5.5781c-0.17578-0.48828-0.60938-0.83594-1.1211-0.90625-0.50781-0.070313-1.0234 0.15625-1.3203 0.58203l-2.0703 2.9727-2.3438-5.1406c-0.19141-0.41797-0.57812-0.71484-1.0312-0.79297-0.45703-0.074219-0.91406 0.078125-1.2344 0.41016l-2.6562 2.7812c-0.60156-0.82422-1.0703-1.5625-1.375-2.0781 1.9102-1.2383 3.9688-3.1484 4.7852-5.8984 0.79687-2.6797 0.86719-5.0938 0.24609-7.0195 2.0547-0.55859 5.7305-1.2539 8.6836-0.16016 2.2695 0.84375 4.7891 2.6016 7.0156 4.1562 1.3438 0.9375 2.4023 1.6719 3.3008 2.1836-2.0312 2.1328-3.5 3.7812-4.0859 4.4883-3.918 4.7266-4.5469 8.2422-4.0781 10.668-0.13672 0.027344-2.7148-6.2461-2.7148-6.2461zm8.9258-2.6484c28.148-29.371 31.297-24.492 31.316-24.18 0.25781 4.7969-14.562 21.426-23.988 30.805-1.2422 1.293-5.0742 4.6445-7.8594 4.6445-0.64453 0-1.1797-0.1875-1.6328-0.57812-2.4531-2.1055-1.9609-6.3867 2.1641-10.691zm6.5078 11.031c0.83594 0.34375 2.2891 0.83984 4.5273 1.3047-0.11328 0.86719-0.19922 2.0938-0.023437 3.3359-2.5469-0.67969-5.0859-1.5742-7.543-2.7227 1.1094-0.55078 2.1523-1.2422 3.0391-1.918zm18.84 6.5508c-0.53906-0.80859-0.85937-2.5117-0.98047-4.0117 0.42578 0.003907 0.85547 0.007813 1.3008 0.007813 1.3906 0 2.875-0.027344 4.4414-0.082031l0.22656 3.9531c-1.5742 0.10547-3.2461 0.15625-4.9883 0.13281zm17.148-2.7891c-0.9375 0.78516-4.2266 1.7812-8.8242 2.3438l0.039063-3.8125c0.29688-0.015625 0.57812-0.03125 0.87891-0.050781 1.875-0.11719 3.5781-0.36328 5.1523-0.69531 0.83203 0.30469 2.5664 1.1133 2.7539 2.2148zm-8.082-4.2812c-0.23047 0.015625-0.44531 0.023437-0.67188 0.039062l0.14062-13.645c6.8242-0.37891 14.668-0.99609 20.375-1.9922-0.51953 4.1367-3.4609 14.551-19.844 15.598z"/>
<text x="0.0" y="117.5" font-size="5.0" font-weight="bold" font-family="Arbeit Regular, Helvetica, Arial-Unicode, Arial, Sans-serif" fill="#000000">Created by giovanni ataraska</text><text x="0.0" y="122.5" font-size="5.0" font-weight="bold" font-family="Arbeit Regular, Helvetica, Arial-Unicode, Arial, Sans-serif" fill="#000000">from Noun Project</text></svg>